<?xml version="1.0" encoding="UTF-8"?>
<svg version="1.1" xmlns="http://www.w3.org/2000/svg" width="1280" height="1280">
<path d="M0 0 C0.70426117 0.00087616 1.40852234 0.00175232 2.13412476 0.00265503 C32.41564385 0.12654703 60.15472474 10.00412716 83.5625 29.375 C84.07876953 29.80087402 84.59503906 30.22674805 85.12695312 30.66552734 C110.16813891 51.6371401 125.19390759 81.89550892 129.25 114.125 C131.1725957 139.24146292 126.13217954 160.95831733 117.5625 184.375 C118.26407227 184.77589844 118.96564453 185.17679688 119.68847656 185.58984375 C123.06315104 187.51822917 126.43782552 189.44661458 129.8125 191.375 C130.43962891 191.73335937 131.06675781 192.09171875 131.71289062 192.4609375 C134.64550781 194.13671875 134.64550781 194.13671875 137.578125 195.8125 C138.24332153 196.1926123 138.90851807 196.57272461 139.59387207 196.96435547 C142.79109701 198.79134115 145.98832194 200.61832682 149.18554688 202.4453125 C149.7643158 202.7760376 150.34308472 203.1067627 150.93939209 203.44750977 C156.99752808 206.90930176 156.99752808 206.90930176 163.05566406 210.37109375 C163.92339447 210.8669397 163.92339447 210.8669397 164.80865479 211.37280273 C166.55993652 212.37353516 168.31121826 213.37426758 170.0625 214.375 C170.64 214.705 171.2175 215.035 171.8125 215.375 C173.5625 216.375 175.3125 217.375 177.0625 218.375 C177.63995468 218.70487411 178.21740936 219.03474823 178.81236267 219.37461853 C179.97983534 220.04194789 181.14695966 220.70988705 182.31373596 221.37843323 C185.2156962 223.04021142 188.12352064 224.68854973 191.04272461 226.32006836 C196.50556738 229.38849199 201.847673 232.51112461 207.04328918 236.0163269 C218.83038807 244.77305387 218.83038807 244.77305387 232.38867188 248.24365234 C237.71659243 246.75916295 241.99541686 243.86836973 246.46923828 240.70117188 C249.72323533 238.63962395 253.08750715 237.73393295 256.8125 236.875 C257.95203125 236.5965625 259.0915625 236.318125 260.265625 236.03125 C283.57482469 231.39150409 306.7767538 235.67565903 326.56616211 248.78686523 C344.93703925 261.48826741 358.36658524 280.60525227 362.90234375 302.67578125 C366.77943663 326.28795522 362.78546036 350.49349845 348.94921875 370.2421875 C334.9332156 389.16391697 315.1976574 401.81383555 291.90161133 405.60131836 C270.60682623 408.62475664 248.03900559 404.50428984 230.0859375 392.29296875 C225.64994603 388.92134056 221.58828157 385.22062611 217.5625 381.375 C216.94761719 380.83488281 216.33273437 380.29476563 215.69921875 379.73828125 C201.27829409 366.57711552 193.20756566 345.28368441 192.24609375 326.16796875 C191.76473639 310.37669662 194.70935748 297.07012376 200.5625 282.375 C199.79550781 282.17390625 199.02851562 281.9728125 198.23828125 281.765625 C193.05037587 279.80293179 188.50085274 276.96691837 183.75 274.125 C175.24615376 269.09763435 166.69825698 264.17226527 158.0625 259.375 C149.84011815 254.79997749 141.67679895 250.13907199 133.5625 245.375 C125.06934846 240.39093158 116.52902204 235.5001575 107.9375 230.6875 C106.88820313 230.09904297 105.83890625 229.51058594 104.7578125 228.90429688 C100.07317721 226.28911762 95.39435783 223.70847401 90.5625 221.375 C89.83289063 222.04144531 89.10328125 222.70789063 88.3515625 223.39453125 C62.51744574 246.42050018 29.02304089 258.85540466 -5.67285156 257.1809082 C-13.03721421 256.74807787 -20.1734187 255.65126501 -27.4375 254.375 C-43.77910713 278.48788477 -60.0062635 302.6693103 -75.97924805 327.02832031 C-86.96142941 343.76573623 -86.96142941 343.76573623 -92.4375 351.375 C-85.23734554 356.63790674 -85.23734554 356.63790674 -77.9765625 361.81640625 C-70.53830016 367.05432872 -63.39332369 372.50119333 -56.4375 378.375 C-55.39632965 379.22977157 -54.35464125 380.08391242 -53.3125 380.9375 C-40.06517488 391.90718068 -27.12396915 404.02138812 -16.56640625 417.63671875 C-14.96855626 419.69193497 -13.3460955 421.67142118 -11.65234375 423.64453125 C3.25323477 441.16926319 16.01937532 460.94800808 26.5625 481.375 C26.90394043 482.0237207 27.24538086 482.67244141 27.59716797 483.34082031 C68.66823217 561.48748038 77.14300886 655.93830703 51.1875 740.328125 C38.08221721 782.16301997 17.76501691 821.63553335 -10.4375 855.375 C-10.89463379 855.92687988 -11.35176758 856.47875977 -11.82275391 857.04736328 C-14.98561986 860.86047694 -18.19696499 864.62767456 -21.4375 868.375 C-22.14003906 869.19097656 -22.84257813 870.00695312 -23.56640625 870.84765625 C-33.15099959 881.74171964 -43.39296433 892.34746384 -54.8203125 901.31640625 C-57.63707893 903.53198224 -60.34245123 905.85445004 -63.0625 908.1875 C-87.15849316 928.23140702 -114.96367789 943.53986072 -143.4375 956.375 C-143.27463501 957.1804425 -143.11177002 957.98588501 -142.94396973 958.81573486 C-141.40963574 966.407249 -139.87900671 973.99949624 -138.35253143 981.59259415 C-137.56763039 985.49622713 -136.78130109 989.39956101 -135.99169922 993.30224609 C-135.22971268 997.0687105 -134.47148912 1000.83591457 -133.71586609 1004.60366058 C-133.4269544 1006.04082966 -133.13668897 1007.47772728 -132.845047 1008.91434479 C-132.43672816 1010.92689467 -132.03323761 1012.9403568 -131.63085938 1014.95410156 C-131.39991577 1016.09993713 -131.16897217 1017.24577271 -130.93103027 1018.42633057 C-130.4375 1021.375 -130.4375 1021.375 -130.4375 1025.375 C-128.6740625 1025.49875 -128.6740625 1025.49875 -126.875 1025.625 C-100.21588417 1028.70746027 -76.59542961 1043.32484183 -57.4375 1061.375 C-56.76203125 1061.98601562 -56.0865625 1062.59703125 -55.390625 1063.2265625 C-39.41074735 1078.24764749 -29.16635206 1099.48702612 -23.4375 1120.375 C-23.09847656 1121.54933594 -22.75945313 1122.72367188 -22.41015625 1123.93359375 C-14.87593062 1155.6328933 -21.40468941 1190.42848036 -37.4375 1218.375 C-42.93761489 1227.07449737 -49.32249277 1234.94348889 -56.4375 1242.375 C-57.12070312 1243.12136719 -57.80390625 1243.86773438 -58.5078125 1244.63671875 C-64.77027804 1251.25736958 -71.88098262 1256.35463336 -79.4375 1261.375 C-80.37078125 1262.0040625 -81.3040625 1262.633125 -82.265625 1263.28125 C-109.83570716 1280.61101593 -146.23214759 1285.33305078 -177.81494141 1278.21411133 C-201.02314236 1272.35382996 -221.18154893 1260.86401991 -238.4375 1244.375 C-239.16066406 1243.72660156 -239.88382813 1243.07820313 -240.62890625 1242.41015625 C-260.04571693 1224.31327188 -274.14871203 1196.00995132 -275.4375 1169.375 C-276.33408829 1169.17561829 -277.23067657 1168.97623657 -278.1544342 1168.77081299 C-291.8466857 1165.66538764 -305.3670884 1161.9350434 -318.9058063 1158.22688198 C-322.37739351 1157.2767059 -325.84989828 1156.3298937 -329.32228088 1155.38262939 C-335.19220128 1153.78082354 -341.06152102 1152.17683339 -346.93041992 1150.57128906 C-354.98234395 1148.36854553 -363.03540047 1146.16996671 -371.08867717 1143.97217464 C-408.22264643 1133.83710806 -445.33731064 1123.63302844 -482.4375 1113.375 C-482.72181885 1114.14231445 -483.0061377 1114.90962891 -483.29907227 1115.70019531 C-484.73839835 1119.08197885 -486.88971888 1121.48194373 -489.375 1124.125 C-489.86589111 1124.64868164 -490.35678223 1125.17236328 -490.86254883 1125.71191406 C-504.41028072 1139.90250845 -523.15358127 1151.28555111 -543.24560547 1152.55200195 C-570.03711325 1153.08868738 -570.03711325 1153.08868738 -582.4375 1148.375 C-583.48550781 1148.00117187 -584.53351563 1147.62734375 -585.61328125 1147.2421875 C-606.38731899 1139.27044748 -623.62026589 1122.58623988 -632.8125 1102.34765625 C-641.48109795 1081.06315235 -642.81391723 1056.72386421 -634.0793457 1035.20361328 C-624.13239807 1012.02039069 -607.70084404 996.01722799 -584.4375 986.375 C-563.53493696 978.79788511 -539.6627545 978.81660789 -519.2734375 988 C-510.46862707 992.26899899 -502.82012287 996.90747611 -495.4375 1003.375 C-494.76074219 1003.95636719 -494.08398438 1004.53773438 -493.38671875 1005.13671875 C-477.33353327 1019.96741716 -468.8748902 1041.30369358 -467.86328125 1062.796875 C-467.8209436 1063.62493652 -467.77860596 1064.45299805 -467.73498535 1065.30615234 C-467.63209589 1067.32891539 -467.53427501 1069.3519352 -467.4375 1071.375 C-466.53012762 1071.62068254 -466.53012762 1071.62068254 -465.60442448 1071.87132835 C-446.06875448 1077.16103963 -426.53400397 1082.45413989 -407 1087.75 C-406.26086821 1087.9503814 -405.52173642 1088.1507628 -404.7602067 1088.35721636 C-331.61133729 1108.18856704 -331.61133729 1108.18856704 -297.875 1117.5625 C-297.20816822 1117.74778008 -296.54133644 1117.93306015 -295.85429764 1118.12395477 C-288.38023448 1120.20120861 -280.90762501 1122.28362723 -273.4375 1124.375 C-273.2943335 1123.12952393 -273.15116699 1121.88404785 -273.00366211 1120.60083008 C-269.9102267 1093.68950878 -248.54120479 1067.04432281 -228.1015625 1050.625 C-212.59625093 1038.77160631 -193.80161867 1029.41986673 -174.4375 1026.375 C-174.60548096 1025.74658203 -174.77346191 1025.11816406 -174.9465332 1024.47070312 C-177.33601251 1015.24876892 -179.22258671 1005.94042157 -181.08178711 996.59960938 C-181.62961763 993.85183921 -182.18469556 991.10559587 -182.74023438 988.359375 C-183.09158059 986.60425364 -183.4425075 984.84904828 -183.79296875 983.09375 C-183.95854782 982.27708862 -184.12412689 981.46042725 -184.29472351 980.61901855 C-184.98695947 977.11468548 -185.4375 973.96154962 -185.4375 970.375 C-186.21424072 970.56610352 -186.99098145 970.75720703 -187.79125977 970.95410156 C-277.57438281 992.78418722 -372.66340022 982.62827757 -452.47265625 934.3671875 C-469.94314924 923.58506237 -486.86095347 911.58751934 -501.9609375 897.640625 C-504.01278734 895.76353839 -506.09410954 893.94125363 -508.19921875 892.125 C-518.26786183 883.33431815 -528.01268144 873.72802932 -536.23828125 863.18359375 C-537.86485445 861.10631821 -539.51389595 859.0975413 -541.23046875 857.09765625 C-556.13715106 839.56580857 -568.87280979 819.79571186 -579.4375 799.375 C-580.11189228 798.10542259 -580.78637024 796.8358907 -581.4609375 795.56640625 C-601.57552799 757.11146064 -613.35743313 714.49486465 -617.4375 671.375 C-617.54964844 670.20453125 -617.66179687 669.0340625 -617.77734375 667.828125 C-620.90232799 627.93106593 -616.80622746 587.95995617 -606.4375 549.375 C-606.18129883 548.42061035 -605.92509766 547.4662207 -605.66113281 546.48291016 C-599.85101862 525.29458281 -591.73338877 504.60992462 -581.40136719 485.20996094 C-580.40511639 483.31334974 -579.45409249 481.39854542 -578.5078125 479.4765625 C-561.54011077 445.53707536 -534.45755857 409.07504624 -504.4375 385.375 C-505.67604511 381.65936466 -507.12767178 380.78041409 -510.1875 378.375 C-511.18265625 377.5809375 -512.1778125 376.786875 -513.203125 375.96875 C-513.99686523 375.33646484 -513.99686523 375.33646484 -514.80664062 374.69140625 C-517.55939722 372.46942069 -520.24580663 370.17024241 -522.9375 367.875 C-526.90593643 364.50147908 -530.89769154 361.16321619 -534.9375 357.875 C-539.5420358 354.12712202 -544.07769191 350.30516556 -548.6015625 346.4609375 C-552.0180954 343.56255177 -555.46254838 340.703449 -558.9375 337.875 C-562.97733924 334.58675875 -566.96820087 331.24753473 -570.9375 327.875 C-579.2600283 320.81111429 -587.61954953 313.8179151 -596.4375 307.375 C-596.99695313 308.15101563 -597.55640625 308.92703125 -598.1328125 309.7265625 C-608.83623614 324.27574584 -621.01611472 335.93036056 -636.4375 345.375 C-637.04142578 345.74850586 -637.64535156 346.12201172 -638.26757812 346.50683594 C-660.06615663 359.72715934 -684.2942668 364.1276245 -709.4375 363.375 C-709.56348572 364.08577698 -709.68947144 364.79655396 -709.8192749 365.52886963 C-710.45132188 368.43863198 -711.3217595 371.11179843 -712.32910156 373.91308594 C-712.72256775 375.01235413 -713.11603394 376.11162231 -713.52142334 377.24420166 C-713.95263489 378.43720886 -714.38384644 379.63021606 -714.828125 380.859375 C-715.28461812 382.12960798 -715.7408496 383.39993501 -716.19683838 384.67034912 C-717.43100357 388.10541141 -718.66996995 391.53872374 -719.9100647 394.97164917 C-720.69137671 397.13573776 -721.47128501 399.30032708 -722.25073242 401.46508789 C-729.80656945 422.44837952 -737.46612389 443.39165122 -745.20788574 464.30712891 C-753.336469 486.27274063 -761.28091513 508.30207744 -769.16600037 530.3560524 C-770.10705961 532.98765926 -771.0491194 535.6189075 -771.99121094 538.25014496 C-772.62885633 540.03279133 -773.26466484 541.81609443 -773.90039062 543.59942627 C-776.31705241 550.35258459 -778.84735651 557.0449701 -781.51184082 563.70465088 C-782.60126184 566.37638217 -782.60126184 566.37638217 -782.4375 569.375 C-780.74482231 570.98195448 -780.74482231 570.98195448 -778.5 572.5 C-760.60919429 585.89703976 -750.46395793 604.47749078 -745.8515625 626.125 C-742.91216887 649.19646696 -747.3290273 672.55412501 -761.4375 691.375 C-764.31013904 694.83951494 -767.32951904 698.1216818 -770.4375 701.375 C-770.98921875 702.00148438 -771.5409375 702.62796875 -772.109375 703.2734375 C-785.36623604 717.77723101 -807.58509766 725.41870659 -826.8046875 726.578125 C-852.14951335 726.91680864 -874.35925913 718.72316328 -892.83984375 701.16796875 C-911.67991124 680.91135483 -917.39139225 657.61939464 -916.62109375 630.53955078 C-915.99889838 619.81495451 -912.43725077 609.82831027 -907.4375 600.375 C-906.94636719 599.41207031 -906.45523438 598.44914063 -905.94921875 597.45703125 C-895.71738414 578.58063947 -877.83410606 564.44739843 -857.36328125 558.0234375 C-848.73854013 555.53632754 -840.66156999 554.33698734 -831.6953125 554.359375 C-829.93791748 554.36275879 -829.93791748 554.36275879 -828.14501953 554.36621094 C-827.25153809 554.36911133 -826.35805664 554.37201172 -825.4375 554.375 C-825.19598709 553.69977798 -824.95447418 553.02455597 -824.7056427 552.32887268 C-813.49144092 520.98357177 -802.22370841 489.66198736 -790.66638184 458.44122314 C-782.32275362 435.89172827 -774.17390535 413.27473129 -766.07421875 390.63671875 C-761.61685985 378.18235944 -757.15591738 365.73345921 -752.4375 353.375 C-753.35716553 353.07787109 -754.27683105 352.78074219 -755.22436523 352.47460938 C-766.9404847 348.46508107 -777.0290343 341.24346108 -786.4375 333.375 C-787.38367188 332.59382813 -788.32984375 331.81265625 -789.3046875 331.0078125 C-812.80987053 310.69880167 -828.87355953 279.36232533 -831.4375 248.375 C-833.03377432 211.70709399 -824.80468661 178.35364482 -800.0625 150.3125 C-798.52761081 148.66034424 -796.98590891 147.01449179 -795.4375 145.375 C-794.70144531 144.56289062 -793.96539063 143.75078125 -793.20703125 142.9140625 C-772.9731695 121.42617581 -740.88451477 107.42045615 -711.4375 106.375 C-710.23609375 106.3234375 -709.0346875 106.271875 -707.796875 106.21875 C-673.01392614 105.20516845 -639.99561998 117.50359514 -614.62841797 141.27758789 C-589.08668249 165.79336122 -575.12762279 197.83921774 -574.09082031 233.23364258 C-574.01835659 238.87269435 -574.26557799 244.01797698 -575.609375 249.51953125 C-578.04921278 258.01125543 -578.04921278 258.01125543 -576.3828125 266.27587891 C-573.23035871 269.93184962 -569.3671062 272.55438948 -565.32373047 275.14160156 C-562.67010275 276.87679795 -560.29235839 278.89010879 -557.875 280.9375 C-556.99714844 281.65035156 -556.11929687 282.36320312 -555.21484375 283.09765625 C-552.09353633 285.65704054 -549.0129997 288.26093791 -545.9375 290.875 C-541.96846457 294.24783589 -537.97732979 297.58676645 -533.9375 300.875 C-529.3329642 304.62287798 -524.79730809 308.44483444 -520.2734375 312.2890625 C-516.8569046 315.18744823 -513.41245162 318.046551 -509.9375 320.875 C-505.89766705 324.16323612 -501.90662329 327.50226442 -497.9375 330.875 C-493.07797892 335.00348691 -488.17159572 339.06770525 -483.2265625 343.09375 C-478.26641665 347.15078806 -473.3538921 351.26513645 -468.4375 355.375 C-465.00647316 354.0835333 -461.93612999 352.58968683 -458.8046875 350.6875 C-457.92635254 350.15874268 -457.04801758 349.62998535 -456.14306641 349.08520508 C-455.20897949 348.5208374 -454.27489258 347.95646973 -453.3125 347.375 C-374.3815961 300.37623815 -281.50106573 286.77770981 -192.1875 308.625 C-173.17808437 313.46390616 -154.82203086 320.05537547 -136.875 327.94140625 C-133.7505923 329.50330442 -133.7505923 329.50330442 -131.4375 329.375 C-130.20333938 327.94276043 -130.20333938 327.94276043 -129.00854492 326.01831055 C-128.52065994 325.2746524 -128.03277496 324.53099426 -127.53010559 323.76480103 C-126.99810043 322.93878387 -126.46609528 322.11276672 -125.91796875 321.26171875 C-125.35522751 320.40089691 -124.79248627 319.54007507 -124.21269226 318.65316772 C-122.98756669 316.77801871 -121.76549832 314.90086964 -120.54608154 313.02200317 C-117.2912619 308.00782296 -114.01423822 303.00819848 -110.73828125 298.0078125 C-110.06087891 296.97280106 -109.38347656 295.93778961 -108.68554688 294.87141418 C-100.10546864 281.78279222 -91.32288571 268.83121676 -82.54370117 255.87573242 C-81.95369827 255.00421539 -81.36369537 254.13269836 -80.7558136 253.23477173 C-79.65793122 251.61348844 -78.55880848 249.99304408 -77.45817566 248.37362671 C-72.67267299 242.31116907 -72.67267299 242.31116907 -70.4375 235.375 C-71.97453057 234.16776536 -73.57084569 233.03582023 -75.1875 231.9375 C-102.90323796 212.1913709 -120.36978334 182.6960203 -126.4375 149.375 C-131.76836675 115.38625227 -123.69342264 80.23690149 -103.4375 52.375 C-83.63147889 27.00095886 -58.11629915 9.42185117 -26.4375 2.375 C-25.65802002 2.19694824 -24.87854004 2.01889648 -24.07543945 1.83544922 C-16.07001953 0.17239067 -8.15415328 -0.02482695 0 0 Z M-369.5 357.125 C-370.23891479 357.37009308 -370.97782959 357.61518616 -371.73913574 357.8677063 C-411.12913633 371.03760076 -445.12650491 392.41987166 -476.4375 419.375 C-473.71005418 422.10244582 -470.67541173 422.51555851 -467.03515625 423.3984375 C-466.28942856 423.58484299 -465.54370087 423.77124847 -464.77537537 423.96330261 C-462.35205522 424.56644992 -459.92624556 425.15873985 -457.5 425.75 C-455.84761396 426.15729916 -454.19527018 426.56476981 -452.54296875 426.97241211 C-444.03115931 429.06268552 -435.51203674 431.11831132 -426.9375 432.9375 C-426.20539307 433.09331543 -425.47328613 433.24913086 -424.71899414 433.40966797 C-421.5191265 434.06034287 -418.72646416 434.375 -415.4375 434.375 C-414.00090314 432.92575185 -414.00090314 432.92575185 -412.9140625 430.88671875 C-412.45749268 430.12681641 -412.00092285 429.36691406 -411.53051758 428.58398438 C-411.04607178 427.75189453 -410.56162598 426.91980469 -410.0625 426.0625 C-401.33966188 411.67015757 -391.33462049 398.19847455 -380.4375 385.375 C-379.52986424 384.29303894 -378.62231745 383.21100324 -377.71484375 382.12890625 C-371.70397182 375.00435249 -365.48833538 368.10850655 -359.06958008 361.34863281 C-356.34110991 358.46681611 -353.71750662 355.63678883 -351.4375 352.375 C-357.5809703 352.375 -363.6891032 355.1974374 -369.5 357.125 Z M-201.4375 352.375 C-197.00698504 357.63925105 -192.37638645 362.65055702 -187.625 367.625 C-181.59386303 373.99696792 -175.8438286 380.45929031 -170.4375 387.375 C-169.40832 388.6516611 -168.37830368 389.92764826 -167.34765625 391.203125 C-156.40749947 404.87009823 -146.37194419 419.31340536 -137.4375 434.375 C-129.30645047 433.69889523 -121.50162108 431.95506506 -113.5625 430.125 C-112.18222157 429.81041599 -110.80193178 429.49588183 -109.42163086 429.18139648 C-99.03371932 426.80115347 -88.70955306 424.21453569 -78.4375 421.375 C-78.4375 417.63523778 -79.11618885 417.23680424 -81.6875 414.625 C-108.90974731 388.38411897 -162.36995067 352.375 -201.4375 352.375 Z M-306.125 370.5625 C-307.49317174 371.8505981 -308.86166903 373.1383505 -310.23046875 374.42578125 C-310.92962402 375.08400879 -311.6287793 375.74223633 -312.34912109 376.42041016 C-314.32127279 378.26621872 -316.30694557 380.09563477 -318.30078125 381.91796875 C-326.31631899 389.23940883 -326.31631899 389.23940883 -333.625 397.25390625 C-335.52177515 399.47362372 -337.51882983 401.58120545 -339.53149414 403.69555664 C-346.58960368 411.14984774 -352.80399966 419.12256849 -358.92871094 427.35205078 C-360.36129595 429.27282739 -361.80653271 431.18316948 -363.2578125 433.08984375 C-367.29218179 437.43391797 -367.29218179 437.43391797 -369.4375 442.375 C-363.76773141 442.93051147 -358.09755814 443.48163932 -352.42700195 444.02905273 C-350.50599217 444.21508096 -348.58508944 444.40221874 -346.66430664 444.59057617 C-330.5467748 446.16990056 -314.65221433 447.375 -298.4375 447.375 C-298.4375 419.985 -298.4375 392.595 -298.4375 364.375 C-300.95968856 364.375 -304.24860199 368.78761661 -306.125 370.5625 Z M-254.4375 364.375 C-254.4375 391.765 -254.4375 419.155 -254.4375 447.375 C-247.17675309 447.375 -240.13369715 447.33829892 -232.9296875 446.7890625 C-232.07931915 446.72721771 -231.22895081 446.66537292 -230.35281372 446.60165405 C-228.56968821 446.4709265 -226.78671766 446.33806851 -225.00390625 446.203125 C-222.33893492 446.00199509 -219.67346401 445.80906718 -217.0078125 445.6171875 C-205.78430205 444.79322233 -194.61250228 443.70182926 -183.4375 442.375 C-193.44471244 426.78593174 -205.38075182 412.4732242 -217.99169922 398.93847656 C-219.4572687 397.3536223 -220.90426188 395.7534959 -222.34765625 394.1484375 C-229.32121615 386.42630989 -236.68894648 379.3137404 -244.4375 372.375 C-245.35660156 371.54097656 -246.27570312 370.70695312 -247.22265625 369.84765625 C-250.44577303 366.31793751 -250.44577303 366.31793751 -254.4375 364.375 Z M-512.95800781 457.82104492 C-513.66715332 458.82808472 -513.66715332 458.82808472 -514.390625 459.85546875 C-514.92333008 460.60070801 -515.45603516 461.34594727 -516.00488281 462.11376953 C-516.56014648 462.92185059 -517.11541016 463.72993164 -517.6875 464.5625 C-518.2659668 465.3860498 -518.84443359 466.20959961 -519.44042969 467.05810547 C-524.04920062 473.67500213 -528.38700949 480.40008895 -532.4375 487.375 C-532.78200195 487.95862305 -533.12650391 488.54224609 -533.48144531 489.14355469 C-555.92751276 527.25154184 -573.4375 573.58262918 -573.4375 618.375 C-540.4375 618.375 -507.4375 618.375 -473.4375 618.375 C-472.1175 606.165 -470.7975 593.955 -469.4375 581.375 C-462.94096528 543.98383353 -452.47287835 509.18356376 -437.4375 474.375 C-438.70529297 474.07843506 -439.97308594 473.78187012 -441.27929688 473.47631836 C-447.16726357 472.09638872 -453.05291402 470.70677194 -458.9375 469.3125 C-460.51516144 468.93875748 -460.51516144 468.93875748 -462.12469482 468.5574646 C-475.1482904 465.46290838 -488.10113293 462.29741122 -500.88476562 458.30639648 C-502.13676758 457.91689819 -502.13676758 457.91689819 -503.4140625 457.51953125 C-504.10580566 457.29628174 -504.79754883 457.07303223 -505.51025391 456.84301758 C-508.46162307 456.12629922 -510.64855506 455.62469157 -512.95800781 457.82104492 Z M-51.4921875 458.02734375 C-52.7296875 458.38771729 -53.9671875 458.74809082 -55.2421875 459.11938477 C-56.23557129 459.41100998 -56.23557129 459.41100998 -57.24902344 459.70852661 C-70.88430559 463.69953272 -84.6039818 467.20355637 -98.4375 470.4375 C-99.29003357 470.63681122 -100.14256714 470.83612244 -101.02093506 471.04147339 C-105.82432218 472.16201606 -110.6298883 473.27273057 -115.4375 474.375 C-115.07736816 475.18275879 -115.07736816 475.18275879 -114.70996094 476.00683594 C-94.38465239 522.06861233 -84.45739907 568.17600927 -79.4375 618.375 C-46.4375 618.375 -13.4375 618.375 20.5625 618.375 C19.67903369 605.06548896 19.67903369 605.06548896 17.875 591.9375 C17.61444824 590.41479492 17.61444824 590.41479492 17.34863281 588.86132812 C12.27484941 560.31799898 3.35565707 533.36699685 -9.4375 507.375 C-9.82550781 506.58512695 -10.21351563 505.79525391 -10.61328125 504.98144531 C-17.98112344 490.16114791 -26.86215306 476.17367502 -36.4375 462.6875 C-36.88206543 462.04538574 -37.32663086 461.40327148 -37.78466797 460.74169922 C-39.16592703 458.78024513 -39.16592703 458.78024513 -41.4375 456.375 C-45.30164393 456.375 -47.82253655 456.9386276 -51.4921875 458.02734375 Z M-393.4375 482.375 C-407.52797742 511.75643441 -418.25790799 541.65407501 -424.6875 573.625 C-424.92178711 574.76356445 -425.15607422 575.90212891 -425.39746094 577.07519531 C-428.01934098 590.80903182 -428.98446716 604.32901585 -430.4375 618.375 C-386.8775 618.375 -343.3175 618.375 -298.4375 618.375 C-298.416875 597.440625 -298.39625 576.50625 -298.375 554.9375 C-298.365896 548.31631104 -298.35679199 541.69512207 -298.34741211 534.87329102 C-298.34406862 528.96160152 -298.34406862 528.96160152 -298.34205627 523.0499115 C-298.34051609 520.40743672 -298.33735885 517.76500894 -298.33192444 515.12254333 C-298.32382272 511.13060127 -298.32359242 507.13867919 -298.32397461 503.14672852 C-298.3203765 501.9605446 -298.31677839 500.77436068 -298.31307125 499.55223179 C-298.3151375 497.95062655 -298.3151375 497.95062655 -298.31724548 496.31666565 C-298.31632369 495.38104577 -298.3154019 494.44542589 -298.31445217 493.4814539 C-298.20257388 491.38837001 -298.20257388 491.38837001 -299.4375 490.375 C-301.77818841 490.19068018 -304.09643596 490.06727196 -306.44140625 489.98046875 C-307.96340475 489.9140006 -309.4853763 489.84691323 -311.00732422 489.77929688 C-311.81973572 489.74441162 -312.63214722 489.70952637 -313.46917725 489.67358398 C-328.63208479 489.00804698 -343.71431797 487.92407977 -358.8125 486.375 C-360.04421432 486.24948257 -360.04421432 486.24948257 -361.30081177 486.12142944 C-372.03215051 485.01997476 -382.7386787 483.75572998 -393.4375 482.375 Z M-166.19921875 483.14453125 C-193.04263031 486.70640206 -220.02721376 489.28141345 -247.10571289 490.0847168 C-251.0934953 489.8151918 -251.0934953 489.8151918 -254.4375 491.375 C-254.53358663 493.01990549 -254.55937787 494.66895691 -254.55775452 496.31666565 C-254.55913201 497.38440248 -254.56050951 498.4521393 -254.56192875 499.55223179 C-254.55833064 500.73841571 -254.55473253 501.92459963 -254.55102539 503.14672852 C-254.55114593 504.40569663 -254.55126646 505.66466475 -254.55139065 506.96178341 C-254.55076558 510.37826041 -254.54580641 513.79467733 -254.53878021 517.21114349 C-254.53310022 520.4128561 -254.53281791 523.61456713 -254.53210449 526.81628418 C-254.52684975 536.19002742 -254.5128887 545.56376415 -254.5 554.9375 C-254.479375 575.871875 -254.45875 596.80625 -254.4375 618.375 C-210.8775 618.375 -167.3175 618.375 -122.4375 618.375 C-124.53244639 596.03674546 -124.53244639 596.03674546 -128.0625 574 C-128.31555908 572.73438232 -128.56861816 571.46876465 -128.8293457 570.16479492 C-135.09498586 539.64342004 -145.53710244 510.25545357 -159.4375 482.375 C-161.6888091 482.375 -163.9767505 482.842755 -166.19921875 483.14453125 Z M-573.4375 662.375 C-572.55385373 675.68452489 -572.55385373 675.68452489 -570.75 688.8125 C-570.57702393 689.82546143 -570.40404785 690.83842285 -570.22583008 691.88208008 C-561.59607071 740.49901646 -541.239863 785.12739991 -511.4375 824.375 C-506.39445905 823.75232175 -501.60759227 822.71692358 -496.71484375 821.3359375 C-495.20472041 820.91892992 -493.69454574 820.50210819 -492.18432617 820.08544922 C-491.39915619 819.86725525 -490.61398621 819.64906128 -489.80502319 819.42425537 C-472.44662238 814.6078425 -455.01821103 810.30119372 -437.4375 806.375 C-437.68282471 805.82078369 -437.92814941 805.26656738 -438.1809082 804.69555664 C-458.35145873 758.71452562 -468.4234077 712.51592301 -473.4375 662.375 C-506.4375 662.375 -539.4375 662.375 -573.4375 662.375 Z M-430.4375 662.375 C-428.32349807 684.8160148 -428.32349807 684.8160148 -424.75 706.9375 C-424.49508789 708.20940186 -424.24017578 709.48130371 -423.97753906 710.79174805 C-417.76390629 741.11013638 -407.2836692 769.74499163 -393.4375 797.375 C-385.16124884 796.93951928 -376.91874397 796.38044962 -368.6796875 795.47265625 C-367.93005234 795.39013107 -367.18041718 795.3076059 -366.4080658 795.22257996 C-364.84820791 795.05006967 -363.28838896 794.87720704 -361.72860718 794.70401001 C-345.21742026 792.8827346 -328.74118152 791.68552807 -312.14599609 790.97094727 C-311.37229172 790.93656555 -310.59858734 790.90218384 -309.80143738 790.86676025 C-308.35510728 790.80362086 -306.90857904 790.74481649 -305.46186829 790.69110107 C-301.82692738 790.5702207 -301.82692738 790.5702207 -298.4375 789.375 C-298.4375 747.465 -298.4375 705.555 -298.4375 662.375 C-341.9975 662.375 -385.5575 662.375 -430.4375 662.375 Z M-254.4375 662.375 C-254.4375 704.285 -254.4375 746.195 -254.4375 789.375 C-251.51291131 790.83729434 -248.51384767 790.65025543 -245.30078125 790.76953125 C-243.77682817 790.8359653 -242.25290352 790.90305382 -240.72900391 790.97070312 C-239.5134079 791.02303101 -239.5134079 791.02303101 -238.27325439 791.07641602 C-223.31866248 791.73477835 -208.44908669 792.80429903 -193.5625 794.375 C-192.76518463 794.45867828 -191.96786926 794.54235657 -191.14639282 794.62857056 C-180.56039525 795.74818151 -169.99586042 797.02076377 -159.4375 798.375 C-145.34702258 768.99356559 -134.61709201 739.09592499 -128.1875 707.125 C-127.83606934 705.41715332 -127.83606934 705.41715332 -127.47753906 703.67480469 C-124.85565902 689.94096818 -123.89053284 676.42098415 -122.4375 662.375 C-165.9975 662.375 -209.5575 662.375 -254.4375 662.375 Z M-79.4375 662.375 C-80.7575 674.585 -82.0775 686.795 -83.4375 699.375 C-89.93194176 736.75412036 -100.37675062 771.58585481 -115.4375 806.375 C-114.31182617 806.63603516 -113.18615234 806.89707031 -112.02636719 807.16601562 C-106.74469613 808.3936511 -101.46554146 809.6318576 -96.1875 810.875 C-95.23687683 811.0988739 -94.28625366 811.3227478 -93.30682373 811.55340576 C-79.96670478 814.70634021 -66.74346412 818.08665801 -53.61621094 822.03710938 C-52.58012695 822.34712891 -51.54404297 822.65714844 -50.4765625 822.9765625 C-49.59178223 823.24807129 -48.70700195 823.51958008 -47.79541016 823.79931641 C-45.19438494 824.53312207 -45.19438494 824.53312207 -41.4375 824.375 C-39.88503306 823.0454018 -39.88503306 823.0454018 -38.625 821.140625 C-37.85724243 820.07775269 -37.85724243 820.07775269 -37.07397461 818.9934082 C-36.53393799 818.2118335 -35.99390137 817.43025879 -35.4375 816.625 C-34.58200562 815.40913208 -34.58200562 815.40913208 -33.70922852 814.16870117 C-27.47452494 805.18387425 -21.80769638 795.89793682 -16.4375 786.375 C-15.93863281 785.49247559 -15.43976563 784.60995117 -14.92578125 783.70068359 C5.10295161 747.84590507 20.5625 703.94315713 20.5625 662.375 C-12.4375 662.375 -45.4375 662.375 -79.4375 662.375 Z M-254.4375 833.375 C-254.4375 860.765 -254.4375 888.155 -254.4375 916.375 C-249.08333885 912.35937914 -244.49616597 908.67713247 -239.9375 903.9375 C-236.4162733 900.33862157 -232.91346947 896.81409679 -229.0625 893.5625 C-225.87302554 890.84284439 -223.1738547 887.91569192 -220.46875 884.71875 C-218.44640943 882.38528011 -216.34803682 880.13589719 -214.22949219 877.88989258 C-207.49156345 870.72417578 -201.37818288 863.20816628 -195.4375 855.375 C-194.89432129 854.66214844 -194.35114258 853.94929687 -193.79150391 853.21484375 C-192.10643332 851.00081213 -190.42674311 848.78284362 -188.75 846.5625 C-188.22019531 845.86213623 -187.69039062 845.16177246 -187.14453125 844.44018555 C-184.61044371 841.66830952 -184.61044371 841.66830952 -183.4375 838.375 C-188.96481689 837.81921711 -194.49257486 837.26810797 -200.02075195 836.72094727 C-201.89326935 836.53499288 -203.76567002 836.34785847 -205.63793945 836.15942383 C-221.96046094 834.51797959 -238.00753855 833.375 -254.4375 833.375 Z M-321.11328125 833.9609375 C-321.966978 834.02278229 -322.82067474 834.08462708 -323.70024109 834.14834595 C-325.48579618 834.27888469 -327.27118356 834.41173742 -329.05639648 834.546875 C-331.73442112 834.74882519 -334.41300448 834.94134745 -337.09179688 835.1328125 C-347.59102098 835.90118113 -358.00673451 836.94406466 -368.4375 838.375 C-367.22561715 841.66627094 -365.92256651 844.34684897 -363.78515625 847.125 C-363.26147461 847.80941162 -362.73779297 848.49382324 -362.19824219 849.19897461 C-361.63782227 849.91706299 -361.07740234 850.63515137 -360.5 851.375 C-359.92024414 852.12467041 -359.34048828 852.87434082 -358.74316406 853.64672852 C-351.4226268 863.05155761 -343.71177335 872.08997213 -335.6875 880.90234375 C-334.09268191 882.65498238 -332.5105813 884.41923185 -330.9375 886.19140625 C-326.67529612 890.96689383 -322.40875499 895.44644784 -317.50390625 899.55859375 C-314.15820797 902.49951946 -311.11088565 905.73350346 -308.02734375 908.9453125 C-304.87350666 912.01193709 -304.87350666 912.01193709 -298.4375 916.375 C-298.4375 888.985 -298.4375 861.595 -298.4375 833.375 C-306.09313794 833.375 -313.51954563 833.38281471 -321.11328125 833.9609375 Z M-137.4375 846.375 C-138.87409686 847.82424815 -138.87409686 847.82424815 -139.9609375 849.86328125 C-140.41750732 850.62318359 -140.87407715 851.38308594 -141.34448242 852.16601562 C-141.82892822 852.99810547 -142.31337402 853.83019531 -142.8125 854.6875 C-151.53533812 869.07984243 -161.54037951 882.55152545 -172.4375 895.375 C-173.34513576 896.45696106 -174.25268255 897.53899676 -175.16015625 898.62109375 C-181.17102818 905.74564751 -187.38666462 912.64149345 -193.80541992 919.40136719 C-194.36592041 919.99336914 -194.9264209 920.58537109 -195.50390625 921.1953125 C-195.99834229 921.71367676 -196.49277832 922.23204102 -197.00219727 922.76611328 C-198.59985584 924.55699098 -200.02182063 926.43825192 -201.4375 928.375 C-193.83284687 927.20046174 -186.74471174 925.39252375 -179.5 922.8125 C-178.50564941 922.46098877 -177.51129883 922.10947754 -176.48681641 921.74731445 C-147.10262617 911.15077234 -118.71853229 896.09119822 -94.4375 876.375 C-93.45007813 875.57964844 -92.46265625 874.78429687 -91.4453125 873.96484375 C-86.37300948 869.84789319 -81.37414148 865.65342261 -76.4375 861.375 C-79.36237354 858.45012646 -82.94476722 858.04955374 -86.85546875 857.09765625 C-87.70490555 856.88564072 -88.55434235 856.67362518 -89.42951965 856.45518494 C-91.23693474 856.00560093 -93.04520813 855.55945581 -94.85424805 855.11645508 C-97.57087293 854.45076349 -100.28460775 853.77424884 -102.99804688 853.09570312 C-120.02496017 848.36049029 -120.02496017 848.36049029 -137.4375 846.375 Z M-427.03515625 847.94921875 C-427.77819 848.11338791 -428.52122375 848.27755707 -429.28677368 848.44670105 C-431.69234875 848.98021662 -434.09627978 849.52069288 -436.5 850.0625 C-437.31207916 850.24451965 -438.12415833 850.42653931 -438.96084595 850.61407471 C-448.37244207 852.725656 -457.78257442 854.84766199 -467.125 857.25 C-467.88240479 857.44037842 -468.63980957 857.63075684 -469.42016602 857.8269043 C-471.11147997 858.27725657 -472.77903258 858.81567373 -474.4375 859.375 C-474.7675 860.035 -475.0975 860.695 -475.4375 861.375 C-474.86644531 861.81328125 -474.29539062 862.2515625 -473.70703125 862.703125 C-469.23213909 866.20335861 -464.94454283 869.7915977 -460.84692383 873.72241211 C-453.61934272 880.63618294 -445.92174673 886.11051826 -437.4375 891.375 C-436.85838867 891.74157715 -436.27927734 892.1081543 -435.68261719 892.48583984 C-412.99718782 906.82668558 -388.7289855 918.19229222 -363.0625 926.0625 C-362.23016846 926.3188623 -361.39783691 926.57522461 -360.5402832 926.83935547 C-356.00620429 928.21673688 -356.00620429 928.21673688 -351.4375 927.375 C-352.15035156 926.67375 -352.86320313 925.9725 -353.59765625 925.25 C-358.47332262 920.42979711 -363.25987355 915.59994097 -367.7109375 910.37890625 C-369.65491046 908.12266614 -371.67073518 905.94136107 -373.6875 903.75 C-388.53093193 887.27127472 -402.22226767 868.64253648 -413.3125 849.4375 C-414.01375 848.426875 -414.715 847.41625 -415.4375 846.375 C-419.50922163 846.375 -423.09591448 847.0620823 -427.03515625 847.94921875 Z " fill="#1d4ed8" transform="translate(916.4375,-0.37499999999999994)"/>
</svg>
